<svg width="21" height="17" viewBox="0 0 21 17" fill="none" xmlns="http://www.w3.org/2000/svg">
<path d="M17.1086 6.5276C16.8486 3.15964 14.0736 0.5 10.7 0.5C7.8143 0.5 5.33715 2.40836 4.53787 5.19164C2.25787 5.99745 0.700012 8.1967 0.700012 10.6818C0.700012 13.8898 3.26358 16.5 6.4143 16.5H15.7C18.4571 16.5 20.7 14.2164 20.7 11.4091C20.7 9.1189 19.2214 7.1531 17.1086 6.5276ZM14.0621 10.4687L11.205 13.3778C11.0657 13.5196 10.8829 13.5909 10.7 13.5909C10.5171 13.5909 10.3343 13.5196 10.195 13.3778L7.33787 10.4687C7.13358 10.2607 7.07215 9.948 7.18287 9.676C7.29358 9.4047 7.5543 9.2273 7.84287 9.2273H9.27141V6.31818C9.27141 5.51527 9.91141 4.86364 10.7 4.86364C11.4886 4.86364 12.1286 5.51527 12.1286 6.31818V9.2273H13.5571C13.8457 9.2273 14.1064 9.4047 14.2171 9.676C14.3279 9.948 14.2664 10.2607 14.0621 10.4687Z" fill="#933393"/>
</svg>
