<svg width="70" height="70" viewBox="0 0 70 70" fill="none" xmlns="http://www.w3.org/2000/svg">
<g opacity="0.0702486">
<path d="M34.9401 0.704834C53.8307 0.704834 69.1683 16.0425 69.1683 34.933C69.1683 53.8236 53.8307 69.1612 34.9401 69.1612C16.0496 69.1612 0.711945 53.8236 0.711945 34.933C0.711945 16.0425 16.0496 0.704834 34.9401 0.704834Z" fill="#780096"/>
</g>
<path d="M34.8103 3.73706C51.9748 3.73706 65.911 17.6733 65.911 34.8377C65.911 52.0022 51.9748 65.9384 34.8103 65.9384C17.6458 65.9384 3.70963 52.0022 3.70963 34.8377C3.70963 17.6733 17.6458 3.73706 34.8103 3.73706Z" fill="white"/>
<path d="M34.855 9.25024C49.0407 9.25024 60.5584 20.768 60.5584 34.9537C60.5584 49.1394 49.0407 60.6571 34.855 60.6571C20.6693 60.6571 9.15158 49.1394 9.15158 34.9537C9.15158 20.768 20.6693 9.25024 34.855 9.25024Z" fill="#780096"/>
<path d="M27.1562 23.8289C27.1562 23.8289 26.931 46.7611 26.931 46.9935C26.931 47.2258 47.1036 35.3168 47.1036 35.3168L27.1562 23.8289Z" fill="white"/>
</svg>
